<svg xmlns="http://www.w3.org/2000/svg" viewBox="0 0 800 600">
  <!-- Sky -->
  <rect x="0" y="0" width="800" height="600" fill="#87CEEB" rx="0" />
  
  <!-- Ground -->
  <rect x="0" y="450" width="800" height="150" fill="#964B00" rx="0" />
  
  <!-- Pelican -->
  <g id="pelican" transform="translate(400, 300)">
    <!-- Body -->
    <ellipse cx="0" cy="0" rx="40" ry="60" fill="#FFFFFF" stroke="#000000" stroke-width="2" />
    
    <!-- Beak -->
    <path d="M 50 0 L 70 20 L 50 40 Z" fill="#FFD700" stroke="#000000" stroke-width="2" />
    
    <!-- Head -->
    <circle cx="0" cy="-60" r="30" fill="#FFFFFF" stroke="#000000" stroke-width="2" />
    
    <!-- Eyes -->
    <circle cx="-15" cy="-70" r="5" fill="#000000" />
    <circle cx="15" cy="-70" r="5" fill="#000000" />
    
    <!-- Legs -->
    <line x1="0" y1="60" x2="-20" y2="100" stroke="#000000" stroke-width="5" />
    <line x1="0" y1="60" x2="20" y2="100" stroke="#000000" stroke-width="5" />
    
    <!-- Feet -->
    <ellipse cx="-20" cy="100" rx="10" ry="15" fill="#FFFFFF" stroke="#000000" stroke-width="2" />
    <ellipse cx="20" cy="100" rx="10" ry="15" fill="#FFFFFF" stroke="#000000" stroke-width="2" />
  </g>
  
  <!-- Bicycle -->
  <g id="bicycle" transform="translate(400, 350)">
    <!-- Frame -->
    <rect x="-50" y="-20" width="100" height="20" fill="#808080" stroke="#000000" stroke-width="2" rx="10" />
    
    <!-- Wheels -->
    <circle cx="-35" cy="20" r="30" fill="#808080" stroke="#000000" stroke-width="2" />
    <circle cx="35" cy="20" r="30" fill="#808080" stroke="#000000" stroke-width="2" />
    
    <!-- Pedals -->
    <rect x="-40" y="40" width="10" height="20" fill="#808080" stroke="#000000" stroke-width="2" rx="5" />
    <rect x="30" y="40" width="10" height="20" fill="#808080" stroke="#000000" stroke-width="2" rx="5" />
    
    <!-- Seat -->
    <rect x="-20" y="-40" width="40" height="10" fill="#808080" stroke="#000000" stroke-width="2" rx="5" />
  </g>
  
  <!-- Pelican on Bicycle -->
  <g id="pelican-on-bicycle" transform="translate(400, 300)">
    <!-- Pelican body on seat -->
    <ellipse cx="0" cy="0" rx="30" ry="40" fill="#FFFFFF" stroke="#000000" stroke-width="2" />
    
    <!-- Pelican legs on pedals -->
    <line x1="0" y1="40" x2="-20" y2="60" stroke="#000000" stroke-width="5" />
    <line x1="0" y1="40" x2="20" y2="60" stroke="#000000" stroke-width="5" />
    
    <!-- Pelican feet on pedals -->
    <ellipse cx="-20" cy="60" rx="10" ry="10" fill="#FFFFFF" stroke="#000000" stroke-width="2" />
    <ellipse cx="20" cy="60" rx="10" ry="10" fill="#FFFFFF" stroke="#000000" stroke-width="2" />
  </g>
  
  <!-- Motion lines -->
  <line x1="350" y1="300" x2="450" y2="300" stroke="#000000" stroke-width="5" stroke-dasharray="10 10" />
  <line x1="350" y1="320" x2="450" y2="320" stroke="#000000" stroke-width="5" stroke-dasharray="10 10" />
  
  <!-- Sun -->
  <circle cx="700" cy="100" r="50" fill="#FFFF00" stroke="#000000" stroke-width="2" />
</svg>
